<svg xmlns="http://www.w3.org/2000/svg" width="1920" height="402" viewBox="0 0 1920 402"><g><g clip-path="url(#clip-248)"><path fill="#fff" d="M156.95 293.768h161.557V584.39H197.142v-33.867c-36.781 30.985-86.172 46.47-148.16 46.47-52.012 0-99.174-11.03-141.458-33.08-42.298-22.051-75.793-54.207-100.481-96.48-24.702-42.258-37.041-92.803-37.041-151.615 0-57.75 13.263-109.076 39.8-153.973 26.524-44.89 63.44-79.667 110.724-104.353C-32.19 32.818 21.659 20.474 82.083 20.474c54.106 0 102.573 9.06 145.401 27.173 42.816 18.115 78.413 44.498 106.784 79.151L215.27 231.548c-34.678-40.423-75.928-60.645-123.73-60.645-41.51 0-74.215 12.603-98.116 37.805-23.913 25.205-35.858 60.385-35.858 105.537 0 45.16 10.898 79.028 32.705 101.6 21.794 22.582 50.043 33.87 84.72 33.87 32.04 0 59.363-7.88 81.958-23.629zm334.538 269.751c-38.1-19.16-67.91-45.678-89.446-79.545-21.55-33.867-32.312-72.326-32.312-115.386 0-43.044 10.763-81.515 32.312-115.382 21.536-33.867 51.347-60.248 89.446-79.152 38.087-18.9 81.037-28.351 128.851-28.351 48.331 0 91.54 9.451 129.64 28.351 38.086 18.904 67.773 45.285 89.053 79.152 21.277 33.867 31.918 72.338 31.918 115.382 0 43.06-10.641 81.52-31.918 115.386-21.28 33.867-50.967 60.384-89.053 79.545-38.1 19.174-81.309 28.746-129.64 28.746-47.814 0-90.764-9.572-128.85-28.746zm179.29-132.316c13.125-14.965 19.7-35.835 19.7-62.615 0-26.777-6.575-47.512-19.7-62.218-13.14-14.692-29.95-22.055-50.439-22.055-20.49 0-37.31 7.363-50.436 22.055-13.14 14.706-19.703 35.44-19.703 62.218 0 26.78 6.564 47.65 19.703 62.615 13.126 14.967 29.946 22.448 50.436 22.448s37.3-7.48 50.438-22.448zm355.02 132.316c-38.098-19.16-67.909-45.678-89.442-79.545-21.552-33.867-32.312-72.326-32.312-115.386 0-43.044 10.76-81.515 32.312-115.382 21.533-33.867 51.344-60.248 89.442-79.152 38.088-18.9 81.04-28.351 128.857-28.351 48.329 0 91.538 9.451 129.635 28.351 38.089 18.904 67.776 45.285 89.053 79.152 21.277 33.867 31.916 72.338 31.916 115.382 0 43.06-10.639 81.52-31.916 115.386-21.277 33.867-50.964 60.384-89.053 79.545-38.097 19.174-81.306 28.746-129.635 28.746-47.817 0-90.769-9.572-128.857-28.746zm179.29-132.316c13.124-14.965 19.704-35.835 19.704-62.615 0-26.777-6.58-47.512-19.703-62.218-13.142-14.692-29.944-22.055-50.434-22.055s-37.31 7.363-50.443 22.055c-13.132 14.706-19.694 35.44-19.694 62.218 0 26.78 6.562 47.65 19.694 62.615 13.132 14.967 29.953 22.448 50.443 22.448s37.292-7.48 50.434-22.448zM1937.999-.003V584.39h-169.44v-35.44c-25.747 28.882-65.148 43.315-118.209 43.315-37.827 0-72.64-9.055-104.423-27.172-31.792-18.114-57.013-44.226-75.655-78.366-18.655-34.123-27.976-73.502-27.976-118.139 0-44.622 9.321-83.879 27.976-117.746 18.642-33.862 43.863-59.854 75.655-77.967 31.784-18.118 66.596-27.172 104.423-27.172 47.803 0 84.322 12.341 109.544 37.017V-.003zm-194.656 431.206c13.128-14.965 19.703-35.835 19.703-62.615 0-26.777-6.575-47.512-19.703-62.218-13.137-14.692-29.948-22.055-50.438-22.055-20.49 0-37.31 7.363-50.439 22.055-13.137 14.706-19.698 35.44-19.698 62.218 0 26.78 6.561 47.65 19.698 62.615 13.128 14.967 29.949 22.448 50.439 22.448s37.301-7.48 50.438-22.448z"/></g></g></svg>