<svg xmlns="http://www.w3.org/2000/svg" width="38" height="38" viewBox="0 0 38 38"><g><g><path fill="#ff9100" d="M9.611 2.11c0 2.798.439 5.545 1.295 8.138.025.08-.011.116-.034.138l-2.82 2.82-.997.998.606 1.275a31.448 31.448 0 0 0 14.86 14.86l1.274.606.998-.999 2.794-2.793a.174.174 0 0 1 .127-.05l.01.002a25.981 25.981 0 0 0 8.165 1.305c.057 0 .11.053.11.11v7.369a.119.119 0 0 1-.11.11C17.202 36 1.999 20.798 1.999 2.112 2 2.055 2.056 2 2.112 2h7.39c.056 0 .11.053.11.11zM2.111 0C.951 0 0 .95 0 2.11 0 21.935 16.066 38 35.889 38c1.16 0 2.111-.95 2.111-2.111V28.52c0-1.161-.95-2.111-2.111-2.111-2.618 0-5.173-.423-7.537-1.204a1.777 1.777 0 0 0-.654-.105c-.55 0-1.077.21-1.5.612l-2.819 2.82A29.42 29.42 0 0 1 9.467 14.62l2.82-2.82c.59-.59.76-1.414.527-2.153a23.984 23.984 0 0 1-1.203-7.536C11.611.95 10.661 0 9.501 0z"/></g></g></svg>