<svg width="27" height="27" viewBox="0 0 27 27" fill="none" xmlns="http://www.w3.org/2000/svg">
<path d="M19 13C19 13.5304 18.7893 14.0391 18.4142 14.4142C18.0391 14.7893 17.5304 15 17 15H5L1 19V3C1 2.46957 1.21071 1.96086 1.58579 1.58579C1.96086 1.21071 2.46957 1 3 1H17C17.5304 1 18.0391 1.21071 18.4142 1.58579C18.7893 1.96086 19 2.46957 19 3V13Z" stroke="#DD392E" stroke-width="2" stroke-linecap="round" stroke-linejoin="round"/>
<path d="M26 20C26 20.5304 25.7893 21.0391 25.4142 21.4142C25.0391 21.7893 24.5304 22 24 22H12L8 26V10C8 9.46957 8.21071 8.96086 8.58579 8.58579C8.96086 8.21071 9.46957 8 10 8H24C24.5304 8 25.0391 8.21071 25.4142 8.58579C25.7893 8.96086 26 9.46957 26 10V20Z" stroke="#DD392E" stroke-width="2" stroke-linecap="round" stroke-linejoin="round"/>
<rect x="5" y="12" width="2" height="5" fill="#080708"/>
<path d="M9 13H11V18H9V13Z" fill="#080708"/>
<path d="M22 9L22 11L17 11L17 9L22 9Z" fill="#080708"/>
<path d="M22 5L22 7L17 7L17 5L22 5Z" fill="#080708"/>
</svg>
