<svg width="747" height="126" viewBox="0 0 747 126" fill="none" xmlns="http://www.w3.org/2000/svg">
<g opacity="0.05">
<mask id="path-1-outside-1" maskUnits="userSpaceOnUse" x="-0.402344" y="0" width="748" height="126" fill="black">
<rect fill="white" x="-0.402344" width="748" height="126"/>
<path d="M46.9392 81.1065C46.8856 80.9991 46.7759 80.9313 46.656 80.9313H31.2749C31.1001 80.9313 30.9584 81.073 30.9584 81.2478V123.684C30.9584 123.858 30.8167 124 30.642 124H1.91414C1.73935 124 1.59766 123.858 1.59766 123.684V2.31648C1.59766 2.14169 1.73935 2 1.91414 2H49.5285C63.9719 2 75.2645 5.212 83.4063 11.636C91.5482 18.06 95.6191 27.1374 95.6191 38.8681C95.6191 47.359 93.8903 54.3974 90.4328 59.9835C87.0773 65.4938 81.8226 69.9713 74.6687 73.4161C74.5073 73.4938 74.4405 73.6896 74.5227 73.8487L99.7662 122.675C99.7894 122.72 99.8015 122.77 99.8015 122.82V123.684C99.8015 123.858 99.6598 124 99.485 124H68.5453C68.4253 124 68.3157 123.932 68.2621 123.825L46.9392 81.1065ZM30.9584 57.9074C30.9584 58.0822 31.1001 58.2239 31.2749 58.2239H49.5285C55.1051 58.2239 59.2875 56.7715 62.0758 53.8668C64.9199 50.9061 66.3419 46.8004 66.3419 41.5494C66.3419 36.2985 64.9199 32.1928 62.0758 29.2321C59.2318 26.2157 55.0493 24.7074 49.5285 24.7074H31.2749C31.1001 24.7074 30.9584 24.8491 30.9584 25.0239V57.9074Z"/>
<path d="M183.68 101.61C183.643 101.472 183.518 101.376 183.376 101.375L142.295 101.209L135.337 123.777C135.297 123.909 135.174 124 135.035 124H104.353C104.133 124 103.98 123.781 104.056 123.575L148.493 2.20768C148.538 2.08295 148.657 2 148.79 2H175.952C176.085 2 176.203 2.0826 176.249 2.20695L221.019 123.574C221.095 123.781 220.942 124 220.722 124H189.884C189.74 124 189.615 123.904 189.578 123.765L183.68 101.61ZM142.295 101.209L175.311 78.6333C175.426 78.5549 175.476 78.4109 175.435 78.2782L162.674 37.1632C162.582 36.8661 162.161 36.8664 162.069 37.1637L142.295 101.209Z"/>
<path d="M320.797 76.9734C320.872 77.3104 321.356 77.3013 321.418 76.9617L335.059 2.25963C335.086 2.10926 335.217 2 335.37 2H363.825C364.026 2 364.177 2.18526 364.135 2.38208L338.421 123.749C338.39 123.895 338.261 124 338.112 124H308.171C308.024 124 307.896 123.899 307.863 123.756L291.92 55.7806C291.843 55.4543 291.378 55.4553 291.303 55.782L275.688 123.754C275.655 123.898 275.527 124 275.38 124H245.523C245.374 124 245.245 123.895 245.214 123.749L219.417 2.38228C219.375 2.18541 219.525 2 219.727 2H248.265C248.418 2 248.549 2.10926 248.577 2.25963L262.215 76.9492C262.277 77.2893 262.762 77.2977 262.836 76.96L279.174 2.24887C279.206 2.10357 279.335 2 279.483 2H303.902C304.05 2 304.179 2.10306 304.211 2.2479L320.797 76.9734Z"/>
<path d="M452.382 75.0846C452.382 75.2594 452.24 75.4011 452.065 75.4011H405.353C405.178 75.4011 405.036 75.5428 405.036 75.7176V123.684C405.036 123.858 404.895 124 404.72 124H375.992C375.817 124 375.676 123.858 375.676 123.684V2.31648C375.676 2.14169 375.817 2 375.992 2H456.833C457.008 2 457.15 2.14169 457.15 2.31648V24.3909C457.15 24.5657 457.008 24.7074 456.833 24.7074H405.353C405.178 24.7074 405.036 24.8491 405.036 25.0239V52.461C405.036 52.6358 405.178 52.7775 405.353 52.7775H452.065C452.24 52.7775 452.382 52.9192 452.382 53.094V75.0846Z"/>
<path d="M500.647 123.684C500.647 123.858 500.506 124 500.331 124H471.687C471.512 124 471.37 123.858 471.37 123.684V2.31648C471.37 2.14169 471.512 2 471.687 2H500.331C500.506 2 500.647 2.14169 500.647 2.31648V123.684Z"/>
<path d="M550.418 101.06C550.418 101.235 550.56 101.376 550.735 101.376H601.211C601.386 101.376 601.528 101.518 601.528 101.693V123.684C601.528 123.858 601.386 124 601.211 124H521.374C521.199 124 521.058 123.858 521.058 123.684V2.31648C521.058 2.14169 521.199 2 521.374 2H550.102C550.277 2 550.418 2.14169 550.418 2.31648V101.06Z"/>
<path d="M652.239 2C652.377 2 652.499 2.08891 652.541 2.21995L679.354 85.938C679.448 86.2314 679.863 86.2312 679.957 85.9377L706.688 2.22022C706.73 2.08904 706.852 2 706.989 2H745.088C745.262 2 745.404 2.14169 745.404 2.31648V123.684C745.404 123.858 745.262 124 745.088 124H716.276C716.101 124 715.96 123.858 715.96 123.684V95.511L718.694 39.4495C718.711 39.0829 718.196 38.9848 718.078 39.3324L689.432 123.785C689.389 123.914 689.268 124 689.132 124H670.179C670.044 124 669.923 123.914 669.88 123.785L641.15 39.2432C641.032 38.8958 640.516 38.994 640.534 39.3604L643.269 95.511V123.684C643.269 123.858 643.127 124 642.952 124H614.224C614.05 124 613.908 123.858 613.908 123.684V2.31648C613.908 2.14169 614.05 2 614.224 2H652.239Z"/>
</mask>
<path d="M90.4328 59.9835L89.0873 59.1507L89.0813 59.1605L90.4328 59.9835ZM62.0758 53.8668L60.9347 52.7705L60.9343 52.7709L62.0758 53.8668ZM62.0758 29.2321L60.9245 30.3177L60.9296 30.3231L60.9347 30.3284L62.0758 29.2321ZM142.295 101.209L140.783 100.742L140.783 100.743L142.295 101.209ZM715.96 95.511L714.379 95.4339L714.377 95.4724V95.511H715.96ZM643.269 95.511H644.851V95.4725L644.849 95.434L643.269 95.511ZM641.15 39.2432L639.652 39.7524L641.15 39.2432ZM640.534 39.3604L638.954 39.4374L640.534 39.3604ZM669.88 123.785L671.378 123.276L669.88 123.785ZM689.432 123.785L690.931 124.293L689.432 123.785ZM718.694 39.4495L717.113 39.3724L718.694 39.4495ZM718.078 39.3324L716.579 38.8241L718.078 39.3324ZM706.688 2.22022L708.195 2.70154L706.688 2.22022ZM679.354 85.938L680.861 85.4553L679.354 85.938ZM679.957 85.9377L678.45 85.4564L679.957 85.9377ZM652.541 2.21995L651.034 2.70262L652.541 2.21995ZM304.211 2.2479L302.666 2.5908L304.211 2.2479ZM279.174 2.24887L277.628 1.91081L279.174 2.24887ZM262.215 76.9492L260.659 77.2335L262.215 76.9492ZM262.836 76.96L261.29 76.6219L262.836 76.96ZM248.577 2.25963L247.02 2.54389L248.577 2.25963ZM219.417 2.38228L217.869 2.71128L219.417 2.38228ZM245.214 123.749L246.762 123.42L245.214 123.749ZM275.688 123.754L274.146 123.4L275.688 123.754ZM291.92 55.7806L290.379 56.142L291.92 55.7806ZM291.303 55.782L292.846 56.1363L291.303 55.782ZM307.863 123.756L309.403 123.394L307.863 123.756ZM338.421 123.749L336.873 123.421L338.421 123.749ZM335.059 2.25963L333.502 1.97538L335.059 2.25963ZM321.418 76.9617L322.974 77.246L321.418 76.9617ZM320.797 76.9734L322.342 76.6305L320.797 76.9734ZM162.674 37.1632L161.163 37.6323L162.674 37.1632ZM162.069 37.1637L163.581 37.6305L162.069 37.1637ZM175.311 78.6333L176.204 79.9395L175.311 78.6333ZM175.435 78.2782L173.923 78.7473L175.435 78.2782ZM135.337 123.777L133.825 123.311L135.337 123.777ZM183.376 101.375L183.369 102.958L183.376 101.375ZM183.68 101.61L185.209 101.203L183.68 101.61ZM99.7662 122.675L98.3605 123.401L99.7662 122.675ZM364.135 2.38208L365.683 2.71006L364.135 2.38208ZM74.6687 73.4161L73.9821 71.9903L74.6687 73.4161ZM74.5227 73.8487L75.9284 73.1219L74.5227 73.8487ZM189.578 123.765L188.049 124.172L189.578 123.765ZM221.019 123.574L222.504 123.026L221.019 123.574ZM176.249 2.20695L177.734 1.65931L176.249 2.20695ZM68.2621 123.825L66.8463 124.532L68.2621 123.825ZM148.493 2.20768L149.979 2.75174L148.493 2.20768ZM104.056 123.575L105.542 124.119L104.056 123.575ZM46.9392 81.1065L45.5233 81.8132L46.9392 81.1065ZM46.656 79.3489H31.2749V82.5137H46.656V79.3489ZM29.376 81.2478V123.684H32.5409V81.2478H29.376ZM30.642 122.418H1.91414V125.582H30.642V122.418ZM3.18007 123.684V2.31648H0.0152386V123.684H3.18007ZM1.91414 3.58242H49.5285V0.417582H1.91414V3.58242ZM49.5285 3.58242C63.7536 3.58242 74.655 6.7468 82.4261 12.8783L84.3865 10.3937C75.8739 3.67719 64.1902 0.417582 49.5285 0.417582V3.58242ZM82.4261 12.8783C90.1345 18.9602 94.0367 27.5498 94.0367 38.8681H97.2015C97.2015 26.725 92.9619 17.1597 84.3865 10.3937L82.4261 12.8783ZM94.0367 38.8681C94.0367 47.1494 92.3507 53.8781 89.0873 59.1507L91.7784 60.8163C95.4299 54.9167 97.2015 47.5686 97.2015 38.8681H94.0367ZM89.0813 59.1605C85.9178 64.3554 80.9246 68.6474 73.9821 71.9903L75.3552 74.8418C82.7206 71.2952 88.2368 66.6322 91.7844 60.8066L89.0813 59.1605ZM73.117 74.5754L98.3605 123.401L101.172 121.948L75.9284 73.1219L73.117 74.5754ZM98.2191 122.82V123.684H101.384V122.82H98.2191ZM99.485 122.418H68.5453V125.582H99.485V122.418ZM69.6779 123.118L48.355 80.3997L45.5233 81.8132L66.8463 124.532L69.6779 123.118ZM31.2749 59.8063H49.5285V56.6415H31.2749V59.8063ZM49.5285 59.8063C55.3659 59.8063 60.0305 58.2826 63.2174 54.9626L60.9343 52.7709C58.5446 55.2604 54.8443 56.6415 49.5285 56.6415V59.8063ZM63.217 54.963C66.417 51.6319 67.9244 47.0903 67.9244 41.5494H64.7595C64.7595 46.5105 63.4228 50.1804 60.9347 52.7705L63.217 54.963ZM67.9244 41.5494C67.9244 36.0086 66.417 31.467 63.217 28.1359L60.9347 30.3284C63.4228 32.9185 64.7595 36.5884 64.7595 41.5494H67.9244ZM63.2272 28.1466C59.9944 24.7178 55.3344 23.125 49.5285 23.125V26.2898C54.7643 26.2898 58.4691 27.7135 60.9245 30.3177L63.2272 28.1466ZM49.5285 23.125H31.2749V26.2898H49.5285V23.125ZM29.376 25.0239V57.9074H32.5409V25.0239H29.376ZM183.382 99.793L142.302 99.6264L142.289 102.791L183.369 102.958L183.382 99.793ZM140.783 100.743L133.825 123.311L136.85 124.243L143.807 101.675L140.783 100.743ZM135.035 122.418H104.353V125.582H135.035V122.418ZM105.542 124.119L149.979 2.75174L147.007 1.66362L102.57 123.031L105.542 124.119ZM148.79 3.58242H175.952V0.417582H148.79V3.58242ZM174.765 2.7546L219.534 124.122L222.504 123.026L177.734 1.65931L174.765 2.7546ZM220.722 122.418H189.884V125.582H220.722V122.418ZM191.107 123.358L185.209 101.203L182.151 102.018L188.049 124.172L191.107 123.358ZM143.188 102.515L176.204 79.9395L174.418 77.327L141.402 99.9025L143.188 102.515ZM176.946 77.8092L164.185 36.6942L161.163 37.6323L173.923 78.7473L176.946 77.8092ZM160.557 36.6968L140.783 100.742L143.807 101.676L163.581 37.6305L160.557 36.6968ZM322.974 77.246L336.615 2.54389L333.502 1.97538L319.861 76.6774L322.974 77.246ZM335.37 3.58242H363.825V0.417582H335.37V3.58242ZM362.587 2.0541L336.873 123.421L339.97 124.077L365.683 2.71006L362.587 2.0541ZM338.112 122.418H308.171V125.582H338.112V122.418ZM309.403 123.394L293.46 55.4193L290.379 56.142L306.322 124.117L309.403 123.394ZM289.761 55.4277L274.146 123.4L277.23 124.109L292.846 56.1363L289.761 55.4277ZM275.38 122.418H245.523V125.582H275.38V122.418ZM246.762 123.42L220.965 2.05329L217.869 2.71128L243.666 124.078L246.762 123.42ZM219.727 3.58242H248.265V0.417582H219.727V3.58242ZM247.02 2.54389L260.659 77.2335L263.772 76.665L250.133 1.97538L247.02 2.54389ZM264.382 77.298L280.72 2.58693L277.628 1.91081L261.29 76.6219L264.382 77.298ZM279.483 3.58242H303.902V0.417582H279.483V3.58242ZM302.666 2.5908L319.253 77.3163L322.342 76.6305L305.756 1.90501L302.666 2.5908ZM452.065 73.8187H405.353V76.9835H452.065V73.8187ZM403.454 75.7176V123.684H406.619V75.7176H403.454ZM404.72 122.418H375.992V125.582H404.72V122.418ZM377.258 123.684V2.31648H374.093V123.684H377.258ZM375.992 3.58242H456.833V0.417582H375.992V3.58242ZM455.567 2.31648V24.3909H458.732V2.31648H455.567ZM456.833 23.125H405.353V26.2898H456.833V23.125ZM403.454 25.0239V52.461H406.619V25.0239H403.454ZM405.353 54.3599H452.065V51.1951H405.353V54.3599ZM450.799 53.094V75.0846H453.964V53.094H450.799ZM500.331 122.418H471.687V125.582H500.331V122.418ZM472.953 123.684V2.31648H469.788V123.684H472.953ZM471.687 3.58242H500.331V0.417582H471.687V3.58242ZM499.065 2.31648V123.684H502.23V2.31648H499.065ZM550.735 102.959H601.211V99.794H550.735V102.959ZM599.945 101.693V123.684H603.11V101.693H599.945ZM601.211 122.418H521.374V125.582H601.211V122.418ZM522.64 123.684V2.31648H519.475V123.684H522.64ZM521.374 3.58242H550.102V0.417582H521.374V3.58242ZM548.836 2.31648V101.06H552.001V2.31648H548.836ZM651.034 2.70262L677.847 86.4207L680.861 85.4553L654.048 1.73728L651.034 2.70262ZM681.464 86.4191L708.195 2.70154L705.181 1.7389L678.45 85.4564L681.464 86.4191ZM706.989 3.58242H745.088V0.417582H706.989V3.58242ZM743.822 2.31648V123.684H746.987V2.31648H743.822ZM745.088 122.418H716.276V125.582H745.088V122.418ZM717.542 123.684V95.511H714.377V123.684H717.542ZM717.54 95.5881L720.274 39.5265L717.113 39.3724L714.379 95.4339L717.54 95.5881ZM716.579 38.8241L687.934 123.277L690.931 124.293L719.576 39.8407L716.579 38.8241ZM689.132 122.418H670.179V125.582H689.132V122.418ZM671.378 123.276L642.648 38.734L639.652 39.7524L668.382 124.294L671.378 123.276ZM638.954 39.4374L641.688 95.588L644.849 95.434L642.115 39.2835L638.954 39.4374ZM641.686 95.511V123.684H644.851V95.511H641.686ZM642.952 122.418H614.224V125.582H642.952V122.418ZM615.49 123.684V2.31648H612.326V123.684H615.49ZM614.224 3.58242H652.239V0.417582H614.224V3.58242ZM615.49 2.31648C615.49 3.01565 614.924 3.58242 614.224 3.58242V0.417582C613.176 0.417582 612.326 1.26774 612.326 2.31648H615.49ZM614.224 122.418C614.924 122.418 615.49 122.984 615.49 123.684H612.326C612.326 124.732 613.176 125.582 614.224 125.582V122.418ZM641.686 123.684C641.686 122.984 642.253 122.418 642.952 122.418V125.582C644.001 125.582 644.851 124.732 644.851 123.684H641.686ZM642.648 38.734C641.94 36.6497 638.847 37.2388 638.954 39.4374L642.115 39.2835C642.186 40.7491 640.124 41.1419 639.652 39.7524L642.648 38.734ZM670.179 122.418C670.722 122.418 671.204 122.763 671.378 123.276L668.382 124.294C668.643 125.065 669.366 125.582 670.179 125.582V122.418ZM687.934 123.277C688.108 122.763 688.59 122.418 689.132 122.418V125.582C689.946 125.582 690.669 125.064 690.931 124.293L687.934 123.277ZM720.274 39.5265C720.381 37.3272 717.287 36.7387 716.579 38.8241L719.576 39.8407C719.105 41.2309 717.042 40.8386 717.113 39.3724L720.274 39.5265ZM716.276 122.418C716.975 122.418 717.542 122.984 717.542 123.684H714.377C714.377 124.732 715.227 125.582 716.276 125.582V122.418ZM743.822 123.684C743.822 122.984 744.388 122.418 745.088 122.418V125.582C746.136 125.582 746.987 124.732 746.987 123.684H743.822ZM745.088 3.58242C744.388 3.58242 743.822 3.01564 743.822 2.31648H746.987C746.987 1.26775 746.136 0.417582 745.088 0.417582V3.58242ZM708.195 2.70154C708.028 3.22625 707.54 3.58242 706.989 3.58242V0.417582C706.163 0.417582 705.432 0.951833 705.181 1.7389L708.195 2.70154ZM677.847 86.4207C678.411 88.1811 680.902 88.18 681.464 86.4191L678.45 85.4564C678.824 84.2825 680.485 84.2817 680.861 85.4553L677.847 86.4207ZM654.048 1.73728C653.796 0.951023 653.065 0.417582 652.239 0.417582V3.58242C651.689 3.58242 651.201 3.22679 651.034 2.70262L654.048 1.73728ZM550.102 3.58242C549.403 3.58242 548.836 3.01564 548.836 2.31648H552.001C552.001 1.26775 551.151 0.417582 550.102 0.417582V3.58242ZM522.64 2.31648C522.64 3.01565 522.073 3.58242 521.374 3.58242V0.417582C520.325 0.417582 519.475 1.26774 519.475 2.31648H522.64ZM521.374 122.418C522.073 122.418 522.64 122.984 522.64 123.684H519.475C519.475 124.732 520.325 125.582 521.374 125.582V122.418ZM599.945 123.684C599.945 122.984 600.512 122.418 601.211 122.418V125.582C602.26 125.582 603.11 124.732 603.11 123.684H599.945ZM601.211 102.959C600.512 102.959 599.945 102.392 599.945 101.693H603.11C603.11 100.644 602.26 99.794 601.211 99.794V102.959ZM550.735 99.794C551.434 99.794 552.001 100.361 552.001 101.06H548.836C548.836 102.109 549.686 102.959 550.735 102.959V99.794ZM472.953 2.31648C472.953 3.01565 472.386 3.58242 471.687 3.58242V0.417582C470.638 0.417582 469.788 1.26774 469.788 2.31648H472.953ZM471.687 122.418C472.386 122.418 472.953 122.984 472.953 123.684H469.788C469.788 124.732 470.638 125.582 471.687 125.582V122.418ZM500.331 125.582C501.379 125.582 502.23 124.732 502.23 123.684H499.065C499.065 122.984 499.632 122.418 500.331 122.418V125.582ZM452.065 54.3599C451.366 54.3599 450.799 53.7931 450.799 53.094H453.964C453.964 52.0452 453.114 51.1951 452.065 51.1951V54.3599ZM375.992 122.418C376.691 122.418 377.258 122.984 377.258 123.684H374.093C374.093 124.732 374.943 125.582 375.992 125.582V122.418ZM403.454 123.684C403.454 122.984 404.021 122.418 404.72 122.418V125.582C405.769 125.582 406.619 124.732 406.619 123.684H403.454ZM405.353 73.8187C404.304 73.8187 403.454 74.6689 403.454 75.7176H406.619C406.619 76.4167 406.052 76.9835 405.353 76.9835V73.8187ZM452.065 76.9835C453.114 76.9835 453.964 76.1333 453.964 75.0846H450.799C450.799 74.3855 451.366 73.8187 452.065 73.8187V76.9835ZM303.902 3.58242C303.309 3.58242 302.795 3.17016 302.666 2.5908L305.756 1.90501C305.563 1.03597 304.792 0.417582 303.902 0.417582V3.58242ZM280.72 2.58693C280.593 3.16814 280.078 3.58242 279.483 3.58242V0.417582C278.591 0.417582 277.819 1.039 277.628 1.91081L280.72 2.58693ZM260.659 77.2335C261.031 79.2742 263.939 79.3245 264.382 77.298L261.29 76.6219C261.585 75.2709 263.524 75.3044 263.772 76.665L260.659 77.2335ZM248.265 3.58242C247.654 3.58242 247.13 3.14539 247.02 2.54389L250.133 1.97538C249.969 1.07313 249.183 0.417582 248.265 0.417582V3.58242ZM220.965 2.05329C221.132 2.84078 220.532 3.58242 219.727 3.58242V0.417582C218.519 0.417582 217.618 1.53004 217.869 2.71128L220.965 2.05329ZM245.523 122.418C246.121 122.418 246.637 122.836 246.762 123.42L243.666 124.078C243.852 124.955 244.627 125.582 245.523 125.582V122.418ZM274.146 123.4C274.278 122.825 274.79 122.418 275.38 122.418V125.582C276.264 125.582 277.032 124.971 277.23 124.109L274.146 123.4ZM293.46 55.4193C293.001 53.461 290.211 53.4673 289.761 55.4277L292.846 56.1363C292.545 57.4433 290.685 57.4475 290.379 56.142L293.46 55.4193ZM308.171 122.418C308.759 122.418 309.269 122.822 309.403 123.394L306.322 124.117C306.524 124.976 307.289 125.582 308.171 125.582V122.418ZM336.873 123.421C336.997 122.836 337.514 122.418 338.112 122.418V125.582C339.009 125.582 339.784 124.955 339.97 124.077L336.873 123.421ZM336.615 2.54389C336.505 3.14539 335.981 3.58242 335.37 3.58242V0.417582C334.453 0.417582 333.667 1.07313 333.502 1.97538L336.615 2.54389ZM319.861 76.6774C320.109 75.319 322.043 75.2827 322.342 76.6305L319.253 77.3163C319.701 79.3381 322.602 79.2835 322.974 77.246L319.861 76.6774ZM164.185 36.6942C163.632 34.9115 161.108 34.9133 160.557 36.6968L163.581 37.6305C163.214 38.8196 161.532 38.8208 161.163 37.6323L164.185 36.6942ZM176.204 79.9395C176.892 79.4691 177.193 78.6051 176.946 77.8092L173.923 78.7473C173.759 78.2166 173.959 77.6406 174.418 77.327L176.204 79.9395ZM133.825 123.311C133.989 122.78 134.48 122.418 135.035 122.418V125.582C135.868 125.582 136.604 125.039 136.85 124.243L133.825 123.311ZM183.369 102.958C182.797 102.955 182.298 102.57 182.151 102.018L185.209 101.203C184.989 100.375 184.24 99.7965 183.382 99.793L183.369 102.958ZM31.2749 23.125C30.2262 23.125 29.376 23.9752 29.376 25.0239H32.5409C32.5409 25.7231 31.9741 26.2898 31.2749 26.2898V23.125ZM98.3605 123.401C98.2676 123.222 98.2191 123.022 98.2191 122.82H101.384C101.384 122.517 101.311 122.218 101.172 121.948L98.3605 123.401ZM363.825 3.58242C363.021 3.58242 362.42 2.84137 362.587 2.0541L365.683 2.71006C365.933 1.52915 365.032 0.417582 363.825 0.417582V3.58242ZM500.331 3.58242C499.632 3.58242 499.065 3.01564 499.065 2.31648H502.23C502.23 1.26774 501.379 0.417582 500.331 0.417582V3.58242ZM73.9821 71.9903C73.0288 72.4494 72.6196 73.6133 73.117 74.5754L75.9284 73.1219C76.2613 73.7659 75.9859 74.5381 75.3552 74.8418L73.9821 71.9903ZM189.884 122.418C190.457 122.418 190.959 122.803 191.107 123.358L188.049 124.172C188.27 125.004 189.023 125.582 189.884 125.582V122.418ZM403.454 52.461C403.454 53.5097 404.304 54.3599 405.353 54.3599V51.1951C406.052 51.1951 406.619 51.7618 406.619 52.461H403.454ZM3.18007 2.31648C3.18007 3.01565 2.61328 3.58242 1.91414 3.58242V0.417582C0.865417 0.417582 0.0152386 1.26774 0.0152386 2.31648H3.18007ZM219.534 124.122C219.229 123.295 219.841 122.418 220.722 122.418V125.582C222.044 125.582 222.961 124.266 222.504 123.026L219.534 124.122ZM405.353 23.125C404.304 23.125 403.454 23.9752 403.454 25.0239H406.619C406.619 25.7231 406.052 26.2898 405.353 26.2898V23.125ZM1.91414 122.418C2.61329 122.418 3.18007 122.984 3.18007 123.684H0.0152386C0.0152386 124.732 0.865409 125.582 1.91414 125.582V122.418ZM31.2749 56.6415C31.9741 56.6415 32.5409 57.2083 32.5409 57.9074H29.376C29.376 58.9562 30.2262 59.8063 31.2749 59.8063V56.6415ZM175.952 3.58242C175.422 3.58242 174.948 3.25203 174.765 2.7546L177.734 1.65931C177.459 0.913168 176.748 0.417582 175.952 0.417582V3.58242ZM455.567 24.3909C455.567 23.6918 456.134 23.125 456.833 23.125V26.2898C457.882 26.2898 458.732 25.4397 458.732 24.3909H455.567ZM29.376 123.684C29.376 122.984 29.9428 122.418 30.642 122.418V125.582C31.6907 125.582 32.5409 124.732 32.5409 123.684H29.376ZM68.5453 122.418C69.0251 122.418 69.4636 122.689 69.6779 123.118L66.8463 124.532C67.1677 125.176 67.8255 125.582 68.5453 125.582V122.418ZM149.979 2.75174C149.796 3.2506 149.321 3.58242 148.79 3.58242V0.417582C147.993 0.417582 147.281 0.9153 147.007 1.66362L149.979 2.75174ZM456.833 3.58242C456.134 3.58242 455.567 3.01562 455.567 2.31648H458.732C458.732 1.26777 457.882 0.417582 456.833 0.417582V3.58242ZM31.2749 79.3489C30.2262 79.3489 29.376 80.1991 29.376 81.2478H32.5409C32.5409 81.947 31.9741 82.5137 31.2749 82.5137V79.3489ZM98.2191 123.684C98.2191 122.984 98.7859 122.418 99.485 122.418V125.582C100.534 125.582 101.384 124.732 101.384 123.684H98.2191ZM104.353 122.418C105.233 122.418 105.844 123.293 105.542 124.119L102.57 123.031C102.116 124.27 103.034 125.582 104.353 125.582V122.418ZM377.258 2.31648C377.258 3.01565 376.691 3.58242 375.992 3.58242V0.417582C374.944 0.417582 374.093 1.26774 374.093 2.31648H377.258ZM46.656 82.5137C46.1762 82.5137 45.7376 82.2425 45.5233 81.8132L48.355 80.3997C48.0336 79.7558 47.3757 79.3489 46.656 79.3489V82.5137Z" fill="white" mask="url(#path-1-outside-1)"/>
</g>
</svg>
