<svg width="60" height="60" viewBox="0 0 60 60" fill="none" xmlns="http://www.w3.org/2000/svg">
<path d="M56.707 23.4844L52.0078 22.8867C51.6211 21.6914 51.1406 20.543 50.5898 19.4531L53.4961 15.7148C54.668 14.2031 54.5391 12.0703 53.1914 10.7695L49.2539 6.83203C47.9414 5.47266 45.8086 5.34375 44.2969 6.51562L40.5469 9.41016C39.457 8.84766 38.3086 8.37891 37.1133 7.99219L36.5156 3.30469C36.293 1.41797 34.6875 0 32.8008 0H27.1992C25.3125 0 23.707 1.41797 23.4844 3.29297L22.8867 7.99219C21.6914 8.37891 20.543 8.85938 19.4531 9.41016L15.7148 6.50391C14.2031 5.33203 12.0703 5.46094 10.7695 6.80859L6.83203 10.7578C5.47266 12.0703 5.34375 14.2031 6.51562 15.7266L9.41016 19.4531C8.84766 20.543 8.37891 21.6914 7.99219 22.8867L3.30469 23.4844C1.41797 23.707 0 25.3125 0 27.1992V32.8008C0 34.6875 1.41797 36.293 3.29297 36.5156L7.99219 37.1133C8.37891 38.3086 8.85938 39.457 9.41016 40.5469L6.50391 44.2852C5.33203 45.7969 5.46094 47.9297 6.80859 49.2305L10.7461 53.168C12.0586 54.5156 14.1914 54.6563 15.7031 53.4844L18.8203 51.0586V27.293C18.8203 25.1836 19.3125 23.2734 20.2969 21.5625C21.2812 19.8516 22.6172 18.4922 24.3047 17.5078C25.9922 16.5234 27.8789 16.0313 29.9531 16.0313C32.0273 16.0313 33.9258 16.5234 35.6484 17.5078C37.3594 18.4922 38.707 19.8398 39.6797 21.5625C40.6523 23.2734 41.1328 25.1836 41.1328 27.293C41.1328 29.4023 40.6758 31.3125 39.7734 33.0234C38.8711 34.7344 37.6289 36.082 36.0469 37.0547C34.4648 38.0273 32.707 38.5078 30.7617 38.5078C29.1914 38.5078 27.7383 38.1797 26.3906 37.5352C25.043 36.8906 23.8945 35.9883 22.9453 34.8164V52.3359C22.9453 52.418 22.9453 52.5 22.9336 52.5703L23.4609 56.6836C23.6836 58.5703 25.2891 59.9883 27.1758 59.9883H32.7773C34.6641 59.9883 36.2695 58.5703 36.4922 56.6953L37.0898 51.9961C38.2852 51.6094 39.4336 51.1289 40.5234 50.5781L44.2617 53.4844C45.7734 54.6563 47.9062 54.5273 49.207 53.1797L53.1445 49.2422C54.5039 47.9297 54.6328 45.7969 53.4609 44.2852L50.5898 40.5469C51.1523 39.457 51.6328 38.3086 52.0078 37.1133L56.6953 36.5156C58.582 36.293 60 34.6875 60 32.8008V27.1992C60 25.3125 58.582 23.707 56.707 23.4844Z" fill="#1E1E1E"/>
</svg>
