<svg width="241" height="241" viewBox="0 0 241 241" fill="none" xmlns="http://www.w3.org/2000/svg">
<mask id="path-1-inside-1" fill="white">
<path fill-rule="evenodd" clip-rule="evenodd" d="M106.215 240.926L106.215 153.459L47.2096 212.464L27.0595 192.314L84.6622 134.711H0L0 106.215L91.1706 106.215L27.0599 42.104L47.2101 21.9539L106.215 80.9585L106.215 0L134.711 0V84.6623L197.42 21.9536L217.57 42.1037L153.459 106.215L240.926 106.215V134.711H159.968L217.571 192.314L197.42 212.465L134.711 149.756V240.926H106.215Z"/>
</mask>
<path d="M106.215 153.459H107.215V151.045L105.508 152.752L106.215 153.459ZM106.215 240.926H105.215V241.926H106.215V240.926ZM47.2096 212.464L46.5025 213.171L47.2096 213.879L47.9167 213.171L47.2096 212.464ZM27.0595 192.314L26.3524 191.607L25.6452 192.314L26.3524 193.021L27.0595 192.314ZM84.6622 134.711L85.3693 135.418L87.0765 133.711H84.6622V134.711ZM0 134.711H-1L-1 135.711H0L0 134.711ZM0 106.215L0 105.215H-1L-1 106.215H0ZM91.1706 106.215V107.215H93.5848L91.8777 105.508L91.1706 106.215ZM27.0599 42.104L26.3528 41.3969L25.6457 42.104L26.3528 42.8111L27.0599 42.104ZM47.2101 21.9539L47.9172 21.2468L47.2101 20.5396L46.503 21.2468L47.2101 21.9539ZM106.215 80.9585L105.508 81.6656L107.215 83.3727V80.9585H106.215ZM106.215 0V-1L105.215 -1V0L106.215 0ZM134.711 0L135.711 0V-1H134.711V0ZM134.711 84.6623H133.711V87.0765L135.418 85.3694L134.711 84.6623ZM197.42 21.9536L198.127 21.2465L197.42 20.5394L196.713 21.2465L197.42 21.9536ZM217.57 42.1037L218.277 42.8108L218.984 42.1037L218.277 41.3966L217.57 42.1037ZM153.459 106.215L152.752 105.508L151.045 107.215H153.459V106.215ZM240.926 106.215H241.926V105.215H240.926V106.215ZM240.926 134.711V135.711H241.926V134.711H240.926ZM159.968 134.711V133.711H157.553L159.26 135.418L159.968 134.711ZM217.571 192.314L218.278 193.022L218.985 192.314L218.278 191.607L217.571 192.314ZM197.42 212.465L196.713 213.172L197.42 213.879L198.128 213.172L197.42 212.465ZM134.711 149.756L135.418 149.048L133.711 147.341V149.756H134.711ZM134.711 240.926V241.926H135.711V240.926H134.711ZM105.215 153.459L105.215 240.926H107.215L107.215 153.459H105.215ZM47.9167 213.171L106.922 154.166L105.508 152.752L46.5025 211.757L47.9167 213.171ZM26.3524 193.021L46.5025 213.171L47.9167 211.757L27.7666 191.607L26.3524 193.021ZM83.9551 134.004L26.3524 191.607L27.7666 193.021L85.3693 135.418L83.9551 134.004ZM84.6622 133.711H0L0 135.711H84.6622V133.711ZM1 134.711L1 106.215H-1L-1 134.711H1ZM0 107.215L91.1706 107.215V105.215L0 105.215L0 107.215ZM26.3528 42.8111L90.4635 106.922L91.8777 105.508L27.767 41.3969L26.3528 42.8111ZM46.503 21.2468L26.3528 41.3969L27.767 42.8111L47.9172 22.661L46.503 21.2468ZM106.922 80.2514L47.9172 21.2468L46.503 22.661L105.508 81.6656L106.922 80.2514ZM105.215 0L105.215 80.9585H107.215L107.215 0L105.215 0ZM134.711 -1L106.215 -1V1L134.711 1V-1ZM135.711 84.6623V0L133.711 0V84.6623H135.711ZM196.713 21.2465L134.004 83.9552L135.418 85.3694L198.127 22.6607L196.713 21.2465ZM218.277 41.3966L198.127 21.2465L196.713 22.6607L216.863 42.8108L218.277 41.3966ZM154.166 106.922L218.277 42.8108L216.863 41.3966L152.752 105.508L154.166 106.922ZM153.459 107.215L240.926 107.215V105.215L153.459 105.215V107.215ZM239.926 106.215V134.711H241.926V106.215H239.926ZM240.926 133.711H159.968V135.711H240.926V133.711ZM218.278 191.607L160.675 134.004L159.26 135.418L216.864 193.022L218.278 191.607ZM198.128 213.172L218.278 193.022L216.864 191.607L196.713 211.758L198.128 213.172ZM134.004 150.463L196.713 213.172L198.128 211.758L135.418 149.048L134.004 150.463ZM135.711 240.926V149.756H133.711V240.926H135.711ZM106.215 241.926H134.711V239.926H106.215V241.926Z" fill="#FF8D00" mask="url(#path-1-inside-1)"/>
</svg>
