<svg width="18" height="19" viewBox="0 0 18 19" fill="none" xmlns="http://www.w3.org/2000/svg">
<path d="M12.9993 5.6V6.7C12.9993 6.9 12.8992 7 12.6992 7H11.5992C11.3992 7 11.2993 6.9 11.2993 6.7V5.6C11.2993 5.4 11.3992 5.3 11.5992 5.3H12.6992C12.8992 5.3 12.9993 5.5 12.9993 5.6ZM8.99927 10.9C9.79927 10.9 10.3993 10.3 10.3993 9.5C10.3993 8.7 9.79927 8.1 8.99927 8.1C8.19927 8.1 7.59924 8.7 7.59924 9.5C7.59924 10.3 8.19927 10.9 8.99927 10.9ZM17.5992 9.4C17.5992 14.2 13.6993 18.1 8.89929 18.1C4.09929 18.1 0.199219 14.2 0.199219 9.4C0.199219 4.6 4.09929 0.699997 8.89929 0.699997C13.6993 0.699997 17.5992 4.6 17.5992 9.4ZM13.8993 8H10.9993C11.2993 8.4 11.4993 8.9 11.4993 9.5C11.4993 10.9 10.3993 12 8.99927 12C7.59927 12 6.49927 10.9 6.49927 9.5C6.49927 9 6.69927 8.5 6.99927 8H4.09924V12.4C4.09924 13.5 4.99927 14.3 5.99927 14.3H11.8993C12.9993 14.3 13.7993 13.4 13.7993 12.4V8H13.8993ZM8.99927 11.4C10.0993 11.4 10.8993 10.5 10.8993 9.5C10.8993 8.9 10.5992 8.4 10.1992 8C10.0992 7.9 9.89922 7.8 9.69922 7.7C9.49922 7.6 9.19929 7.5 8.89929 7.5C8.59929 7.5 8.29924 7.6 8.09924 7.7C7.89924 7.8 7.79924 7.9 7.59924 8C7.19924 8.4 6.89929 8.9 6.89929 9.5C6.99929 10.6 7.89927 11.4 8.99927 11.4ZM13.8993 6.5C13.8993 5.4 12.9993 4.6 11.9993 4.6H6.69922V7H6.29932V4.6H6.09924V7H5.69922V4.6C5.59922 4.6 5.49929 4.7 5.39929 4.7V7H4.99927V4.9C4.49927 5.3 4.19922 5.8 4.19922 6.5V7.8H7.29932C7.79932 7.3 8.39924 7 9.09924 7C9.79924 7 10.3993 7.3 10.8993 7.8H13.9993V6.5H13.8993Z" fill="#B6B8BA"/>
</svg>
