<svg width="18" height="19" viewBox="0 0 18 19" fill="none" xmlns="http://www.w3.org/2000/svg">
<path d="M17.8004 9.5C17.8004 4.7 13.9003 0.800003 9.10034 0.800003C4.30034 0.800003 0.400391 4.7 0.400391 9.5C0.400391 14.3 4.30034 18.2 9.10034 18.2C13.9003 18.2 17.8004 14.3 17.8004 9.5ZM8.10034 3.9L7.30042 6.4V8.1H6.70032V6.4C6.60032 6.1 6.50041 5.7 6.30042 5.1C6.20042 4.7 6.00039 4.3 5.90039 3.9H6.60034L7.00037 5.5L7.40039 3.9H8.10034ZM9.80042 7C9.80042 7.3 9.70034 7.6 9.60034 7.7C9.40034 7.9 9.20039 8 8.90039 8C8.60039 8 8.40032 7.9 8.20032 7.7C8.10032 7.5 8.00037 7.3 8.00037 7V5.9C8.00037 5.6 8.10032 5.3 8.20032 5.2C8.40032 5 8.60039 4.9 8.90039 4.9C9.20039 4.9 9.40034 5 9.60034 5.2C9.70034 5.4 9.80042 5.6 9.80042 5.9V7ZM11.8004 8H11.2003V7.7C11.0003 8 10.8003 8.1 10.6003 8.1C10.4003 8.1 10.3003 8 10.2003 7.9C10.2003 7.8 10.1003 7.7 10.1003 7.4V4.9H10.7003V7.2C10.7003 7.3 10.7003 7.4 10.7003 7.4C10.7003 7.5 10.8004 7.5 10.8004 7.5C10.9004 7.5 11.0003 7.4 11.2003 7.2V4.8H11.8004V8ZM13.7003 11.8C13.7003 12.5 13.7004 13.3 13.5004 14C13.4004 14.5 13.0004 14.9 12.5004 14.9C11.4004 15 10.2004 15 9.00037 15C7.80037 15 6.70037 15 5.50037 14.9C5.00037 14.8 4.60037 14.5 4.50037 14C4.30037 13.3 4.30042 12.5 4.30042 11.8C4.30042 11.1 4.30037 10.3 4.50037 9.6C4.60037 9.1 5.00037 8.7 5.50037 8.7C6.60037 8.6 7.80037 8.6 9.00037 8.6C10.2004 8.6 11.3004 8.6 12.5004 8.7C13.0004 8.8 13.4004 9.1 13.5004 9.6C13.7004 10.3 13.7003 11.1 13.7003 11.8ZM13.0004 13.2C13.0004 13.1 13.0004 13 13.0004 12.8V12.7H12.4004C12.4004 12.9 12.4004 13 12.4004 13.1C12.4004 13.2 12.3003 13.3 12.2003 13.3C12.0003 13.3 11.9004 13.2 11.9004 12.9V12.4H13.0004V11.8C13.0004 11.5 12.9004 11.2 12.8004 11.1C12.6004 10.9 12.4003 10.8 12.1003 10.8C11.8003 10.8 11.6004 10.9 11.4004 11.1C11.3004 11.3 11.2003 11.5 11.2003 11.8V12.9C11.2003 13.2 11.3004 13.5 11.4004 13.6C11.6004 13.8 11.8003 13.9 12.1003 13.9C12.4003 13.9 12.6004 13.8 12.8004 13.6C12.9004 13.4 12.9004 13.3 13.0004 13.2ZM11.9004 11.9V11.6C11.9004 11.3 12.0003 11.2 12.2003 11.2C12.4003 11.2 12.5004 11.3 12.5004 11.6V11.9H11.9004ZM10.8004 13.5C10.8004 13.4 10.9004 13.2 10.9004 12.9V11.7C10.9004 11.4 10.9004 11.2 10.8004 11.1C10.7004 10.9 10.6004 10.8 10.4004 10.8C10.2004 10.8 10.0004 10.9 9.80042 11.1V9.8H9.20032V13.9H9.80042V13.6C10.0004 13.8 10.2004 13.9 10.4004 13.9C10.6004 13.9 10.7004 13.7 10.8004 13.5ZM10.3004 12.9C10.3004 13.2 10.2003 13.3 10.1003 13.3C10.0003 13.3 9.90042 13.3 9.80042 13.2V11.3C9.90042 11.2 10.0003 11.2 10.1003 11.2C10.3003 11.2 10.3004 11.3 10.3004 11.6V12.9ZM8.20032 13.8H8.80042V10.7H8.20032V13.1C8.10032 13.3 8.00041 13.4 7.80042 13.4C7.70042 13.4 7.70032 13.4 7.70032 13.3C7.70032 13.3 7.70032 13.2 7.70032 13.1V10.8H7.10034V13.2C7.10034 13.4 7.10032 13.6 7.20032 13.7C7.30032 13.9 7.40034 13.9 7.60034 13.9C7.80034 13.9 8.00032 13.8 8.20032 13.5V13.8ZM6.40039 10.3H7.10034V9.7H5.20032V10.3H5.90039V13.8H6.50037V10.3H6.40039ZM9.20032 7.1V5.8C9.20032 5.5 9.10039 5.4 8.90039 5.4C8.70039 5.4 8.60034 5.5 8.60034 5.8V7.1C8.60034 7.4 8.70039 7.5 8.90039 7.5C9.10039 7.5 9.20032 7.4 9.20032 7.1Z" fill="#B6B8BA"/>
</svg>
