<svg width="18" height="19" viewBox="0 0 18 19" fill="none" xmlns="http://www.w3.org/2000/svg">
<path d="M8.89929 0.699997C4.09929 0.699997 0.199219 4.6 0.199219 9.4C0.199219 14.2 4.09929 18.1 8.89929 18.1C13.6993 18.1 17.5992 14.2 17.5992 9.4C17.5992 4.6 13.6993 0.699997 8.89929 0.699997ZM13.2993 7.9C13.3993 10.8 11.2993 13.9 7.49927 13.9C6.39927 13.9 5.29929 13.6 4.39929 13C5.49929 13.1 6.49929 12.8 7.39929 12.2C6.49929 12.2 5.79927 11.6 5.49927 10.8C5.79927 10.9 6.09929 10.8 6.39929 10.8C5.39929 10.6 4.79932 9.7 4.79932 8.8C5.09932 9 5.39922 9 5.69922 9.1C4.79922 8.5 4.49924 7.3 5.09924 6.4C6.09924 7.6 7.59932 8.4 9.29932 8.5C8.99932 7.2 9.99932 6 11.2993 6C11.8993 6 12.3993 6.2 12.7993 6.6C13.2993 6.5 13.6992 6.3 14.0992 6.1C13.8992 6.6 13.5992 7 13.1992 7.2C13.5992 7.2 13.9993 7 14.3993 6.9C13.9993 7.3 13.6993 7.7 13.2993 7.9Z" fill="#B6B8BA"/>
</svg>
