<?xml version="1.0" encoding="iso-8859-1"?>
<!-- Generator: Adobe Illustrator 19.0.0, SVG Export Plug-In . SVG Version: 6.00 Build 0)  -->
<svg version="1.1" id="Capa_1" xmlns="http://www.w3.org/2000/svg" xmlns:xlink="http://www.w3.org/1999/xlink" x="0px" y="0px"
	 viewBox="0 0 512 512" style="enable-background:new 0 0 512 512;" xml:space="preserve">
<g>
	<g>
		<path d="M134.621,161.103c-52.326,0-94.897,42.571-94.897,94.897c0,52.326,42.571,94.897,94.897,94.897
			c52.326,0,94.897-42.571,94.897-94.897C229.517,203.674,186.946,161.103,134.621,161.103z M134.621,317.793
			c-34.074,0-61.793-27.719-61.793-61.793c0-34.074,27.724-61.793,61.793-61.793c34.075,0,61.793,27.719,61.793,61.793
			C196.414,290.075,168.695,317.793,134.621,317.793z"/>
	</g>
</g>
<g>
	<g>
		<path d="M375.724,161.103c-52.326,0-94.891,42.571-94.891,94.897c0,52.326,42.571,94.897,94.891,94.897
			c52.326,0,94.897-42.571,94.897-94.897S428.05,161.103,375.724,161.103z M375.724,317.793c-34.069,0-61.788-27.719-61.788-61.793
			c0-34.074,27.719-61.793,61.788-61.793s61.793,27.719,61.793,61.793S409.799,317.793,375.724,317.793z"/>
	</g>
</g>
<g>
	<g>
		<path d="M256,208.552c-21.716,0-42.212,11.967-54.83,32.005l28.011,17.639c6.615-10.51,16.392-16.541,26.825-16.535
			c9.556,0,18.477,5.159,25.115,14.532l27.012-19.139C295.299,218.941,276.298,208.552,256,208.552z"/>
	</g>
</g>
<g>
	<g>
		<rect x="454.069" y="237.793" width="57.931" height="33.103"/>
	</g>
</g>
<g>
	<g>
		<rect y="237.793" width="55.724" height="33.103"/>
	</g>
</g>
<g>
</g>
<g>
</g>
<g>
</g>
<g>
</g>
<g>
</g>
<g>
</g>
<g>
</g>
<g>
</g>
<g>
</g>
<g>
</g>
<g>
</g>
<g>
</g>
<g>
</g>
<g>
</g>
<g>
</g>
</svg>
