<svg width="0" height="0" class="hidden">
 <symbol xmlns="http://www.w3.org/2000/svg" viewBox="0 0 512 512" id="search">
    <path d="M496.131 435.698L374.855 332.551c-12.537-11.283-25.945-16.463-36.776-15.963C366.707 283.054 384 239.549 384 192 384 85.961 298.039 0 192 0S0 85.961 0 192s85.961 192 192 192c47.549 0 91.054-17.293 124.588-45.922-.5 10.831 4.68 24.239 15.963 36.776L435.698 496.13c17.661 19.623 46.511 21.277 64.11 3.678s15.946-46.449-3.677-64.11zM192 320c-70.692 0-128-57.308-128-128S121.308 64 192 64s128 57.308 128 128-57.307 128-128 128z"></path>
  </symbol>
  <symbol xmlns="http://www.w3.org/2000/svg" viewBox="0 0 19 19" id="social-1">
    <path d="M9.5.7C4.7.7.8 4.6.8 9.4c0 4.8 3.9 8.7 8.7 8.7 4.8 0 8.7-3.9 8.7-8.7.1-4.8-3.8-8.7-8.7-8.7zm2.6 5.2h-1.2c-.4 0-.5.2-.5.6v1.1h1.7l-.2 1.9h-1.6v5.6H8V9.5H6.8V7.6H8V6c0-1.4.8-2.2 2.4-2.2H12v2.1h.1z"></path>
  </symbol>
  <symbol xmlns="http://www.w3.org/2000/svg" viewBox="0 0 18 19" id="social-2">
    <path d="M8.9.7C4.1.7.2 4.6.2 9.4c0 4.8 3.9 8.7 8.7 8.7 4.8 0 8.7-3.9 8.7-8.7 0-4.8-3.9-8.7-8.7-8.7zm4.4 7.2c.1 2.9-2 6-5.8 6-1.1 0-2.2-.3-3.1-.9 1.1.1 2.1-.2 3-.8-.9 0-1.6-.6-1.9-1.4.3.1.6 0 .9 0-1-.2-1.6-1.1-1.6-2 .3.2.6.2.9.3-.9-.6-1.2-1.8-.6-2.7 1 1.2 2.5 2 4.2 2.1C9 7.2 10 6 11.3 6c.6 0 1.1.2 1.5.6.5-.1.9-.3 1.3-.5-.2.5-.5.9-.9 1.1.4 0 .8-.2 1.2-.3-.4.4-.7.8-1.1 1z"></path>
  </symbol>
  <symbol xmlns="http://www.w3.org/2000/svg" viewBox="0 0 18 19" id="social-3">
    <path d="M13 5.6v1.1c0 .2-.1.3-.3.3h-1.1c-.2 0-.3-.1-.3-.3V5.6c0-.2.1-.3.3-.3h1.1c.2 0 .3.2.3.3zm-4 5.3c.8 0 1.4-.6 1.4-1.4 0-.8-.6-1.4-1.4-1.4-.8 0-1.4.6-1.4 1.4 0 .8.6 1.4 1.4 1.4zm8.6-1.5c0 4.8-3.9 8.7-8.7 8.7-4.8 0-8.7-3.9-8.7-8.7C.2 4.6 4.1.7 8.9.7c4.8 0 8.7 3.9 8.7 8.7zM13.9 8H11c.3.4.5.9.5 1.5 0 1.4-1.1 2.5-2.5 2.5s-2.5-1.1-2.5-2.5c0-.5.2-1 .5-1.5H4.1v4.4c0 1.1.9 1.9 1.9 1.9h5.9c1.1 0 1.9-.9 1.9-1.9V8h.1zM9 11.4c1.1 0 1.9-.9 1.9-1.9 0-.6-.3-1.1-.7-1.5-.1-.1-.3-.2-.5-.3-.2-.1-.5-.2-.8-.2-.3 0-.6.1-.8.2-.2.1-.3.2-.5.3-.4.4-.7.9-.7 1.5.1 1.1 1 1.9 2.1 1.9zm4.9-4.9c0-1.1-.9-1.9-1.9-1.9H6.7V7h-.4V4.6h-.2V7h-.4V4.6c-.1 0-.2.1-.3.1V7H5V4.9c-.5.4-.8.9-.8 1.6v1.3h3.1c.5-.5 1.1-.8 1.8-.8s1.3.3 1.8.8H14V6.5h-.1z"></path>
  </symbol>
  <symbol xmlns="http://www.w3.org/2000/svg" viewBox="0 0 18 19" id="social-4">
    <path d="M17.8 9.5c0-4.8-3.9-8.7-8.7-8.7C4.3.8.4 4.7.4 9.5c0 4.8 3.9 8.7 8.7 8.7 4.8 0 8.7-3.9 8.7-8.7zM8.1 3.9l-.8 2.5v1.7h-.6V6.4c-.1-.3-.2-.7-.4-1.3-.1-.4-.3-.8-.4-1.2h.7L7 5.5l.4-1.6h.7zM9.8 7c0 .3-.1.6-.2.7-.2.2-.4.3-.7.3-.3 0-.5-.1-.7-.3-.1-.2-.2-.4-.2-.7V5.9c0-.3.1-.6.2-.7.2-.2.4-.3.7-.3.3 0 .5.1.7.3.1.2.2.4.2.7V7zm2 1h-.6v-.3c-.2.3-.4.4-.6.4-.2 0-.3-.1-.4-.2 0-.1-.1-.2-.1-.5V4.9h.6v2.5c0 .1.1.1.1.1.1 0 .2-.1.4-.3V4.8h.6V8zm1.9 3.8c0 .7 0 1.5-.2 2.2-.1.5-.5.9-1 .9-1.1.1-2.3.1-3.5.1-1.2 0-2.3 0-3.5-.1-.5-.1-.9-.4-1-.9-.2-.7-.2-1.5-.2-2.2 0-.7 0-1.5.2-2.2.1-.5.5-.9 1-.9 1.1-.1 2.3-.1 3.5-.1 1.2 0 2.3 0 3.5.1.5.1.9.4 1 .9.2.7.2 1.5.2 2.2zm-.7 1.4v-.5h-.6v.4c0 .1-.1.2-.2.2-.2 0-.3-.1-.3-.4v-.5H13v-.6c0-.3-.1-.6-.2-.7-.2-.2-.4-.3-.7-.3-.3 0-.5.1-.7.3-.1.2-.2.4-.2.7v1.1c0 .3.1.6.2.7.2.2.4.3.7.3.3 0 .5-.1.7-.3.1-.2.1-.3.2-.4zm-1.1-1.3v-.3c0-.3.1-.4.3-.4.2 0 .3.1.3.4v.3h-.6zm-1.1 1.6c0-.1.1-.3.1-.6v-1.2c0-.3 0-.5-.1-.6-.1-.2-.2-.3-.4-.3s-.4.1-.6.3V9.8h-.6v4.1h.6v-.3c.2.2.4.3.6.3.2 0 .3-.2.4-.4zm-.5-.6c0 .3-.1.4-.2.4s-.2 0-.3-.1v-1.9c.1-.1.2-.1.3-.1.2 0 .2.1.2.4v1.3zm-2.1.9h.6v-3.1h-.6v2.4c-.1.2-.2.3-.4.3-.1 0-.1 0-.1-.1v-2.5h-.6v2.4c0 .2 0 .4.1.5.1.2.2.2.4.2s.4-.1.6-.4v.3zm-1.8-3.5h.7v-.6H5.2v.6h.7v3.5h.6v-3.5h-.1zm2.8-3.2V5.8c0-.3-.1-.4-.3-.4-.2 0-.3.1-.3.4v1.3c0 .3.1.4.3.4.2 0 .3-.1.3-.4z"></path>
  </symbol>
</svg>
